<svg width="62" height="69" viewBox="0 0 62 69" fill="none" xmlns="http://www.w3.org/2000/svg">
<path fill-rule="evenodd" clip-rule="evenodd" d="M31.0902 18.6268C41.7401 18.6268 50.4044 27.4241 50.4044 38.3145C50.4044 49.205 41.74 58.0023 31.0902 58.0023C20.4403 58.0023 11.7759 49.205 11.7759 38.3145C11.7759 27.4241 20.4403 18.6268 31.0902 18.6268ZM52.4044 38.3145C52.4044 26.354 42.8788 16.6268 31.0902 16.6268C19.3015 16.6268 9.77591 26.354 9.77591 38.3145C9.77591 50.2751 19.3015 60.0023 31.0902 60.0023C42.8788 60.0023 52.4044 50.2751 52.4044 38.3145Z" fill="#52AE32"/>
<path fill-rule="evenodd" clip-rule="evenodd" d="M32.0895 17.6268L30.0895 17.6268L30.0895 37.3145L10.7946 37.3145L10.7946 39.3145L32.0895 39.3145L32.0895 17.6268Z" fill="#52AE32"/>
<path fill-rule="evenodd" clip-rule="evenodd" d="M31.0899 10.5446C46.1224 10.5446 58.3397 22.96 58.3397 38.3137C58.3397 53.6674 46.1224 66.0829 31.0898 66.0829C16.0573 66.0829 3.84003 53.6674 3.84003 38.3137C3.84003 22.96 16.0573 10.5446 31.0899 10.5446ZM60.3397 38.3137C60.3397 21.8899 47.2612 8.54456 31.0899 8.54456C14.9185 8.54455 1.84003 21.8899 1.84003 38.3137C1.84003 54.7375 14.9185 68.0829 31.0898 68.0829C47.2612 68.0829 60.3397 54.7375 60.3397 38.3137Z" fill="#52AE32"/>
<path fill-rule="evenodd" clip-rule="evenodd" d="M36.5327 0.157228L26.471 0.157227L26.471 9.54507L28.471 9.54507L28.471 2.15723L34.5327 2.15723L34.5327 9.90074L36.5327 9.90074L36.5327 0.157228Z" fill="#52AE32"/>
<path fill-rule="evenodd" clip-rule="evenodd" d="M7.80739 7.45652L0.747559 14.72L7.29963 21.3153L8.71847 19.9057L3.55151 14.7047L7.82266 10.3103L13.2075 15.7331L14.6267 14.3239L7.80739 7.45652Z" fill="#52AE32"/>
<path fill-rule="evenodd" clip-rule="evenodd" d="M54.5549 7.49634L47.9345 14.0722L49.3439 15.4912L54.5201 10.3499L58.7627 14.7748L53.3183 20.188L54.7284 21.6063L61.5657 14.8083L54.5549 7.49634Z" fill="#52AE32"/>
</svg>
