<svg width="103" height="59" viewBox="0 0 103 59" fill="none" xmlns="http://www.w3.org/2000/svg">
<path fill-rule="evenodd" clip-rule="evenodd" d="M6.5 5.57031H15V44H94.7439V52.504H6.5V5.57031ZM8.5 7.57031V50.504H92.7439V46H13V7.57031H8.5Z" fill="#52AE32"/>
<path fill-rule="evenodd" clip-rule="evenodd" d="M0 12H8.5V50.4297H88.7439V58.9336H0V12ZM2 14V56.9336H86.7439V52.4297H6.5V14H2Z" fill="#52AE32"/>
<path fill-rule="evenodd" clip-rule="evenodd" d="M13.0781 0H102.322V45.9336H13.0781V0ZM15.0781 2V43.9336H100.322V2H15.0781Z" fill="#52AE32"/>
<path d="M32.9032 19.3271C34.4898 19.3271 35.8298 19.8738 36.9232 20.9671C38.0298 22.0471 38.5832 23.4071 38.5832 25.0471C38.5832 26.6871 38.0365 28.0538 36.9432 29.1471C35.8498 30.2271 34.5032 30.7671 32.9032 30.7671C31.3165 30.7671 29.9765 30.2205 28.8832 29.1271C27.7898 28.0338 27.2432 26.6738 27.2432 25.0471C27.2432 23.4205 27.7898 22.0605 28.8832 20.9671C29.9898 19.8738 31.3298 19.3271 32.9032 19.3271ZM35.7432 22.0871C34.9698 21.3005 34.0232 20.9071 32.9032 20.9071C31.7832 20.9071 30.8365 21.3005 30.0632 22.0871C29.3032 22.8605 28.9232 23.8471 28.9232 25.0471C28.9232 26.2471 29.3032 27.2405 30.0632 28.0271C30.8365 28.8005 31.7832 29.1871 32.9032 29.1871C34.0365 29.1871 34.9832 28.8005 35.7432 28.0271C36.5165 27.2405 36.9032 26.2471 36.9032 25.0471C36.9032 23.8471 36.5165 22.8605 35.7432 22.0871Z" fill="#52AE32"/>
<path d="M49.03 19.5471V21.1071H45.23V30.5471H43.57V21.1071H39.77V19.5471H45.23H49.03Z" fill="#52AE32"/>
<path d="M64.4191 23.1671C65.2058 23.4205 65.8124 23.8471 66.2391 24.4471C66.6791 25.0471 66.8991 25.7738 66.8991 26.6271C66.8991 27.8938 66.4391 28.9005 65.5191 29.6471C64.5991 30.3938 63.3924 30.7671 61.8991 30.7671C60.4591 30.7671 59.2324 30.4071 58.2191 29.6871C57.2191 28.9671 56.6191 27.9205 56.4191 26.5471H58.0991C58.4858 28.3071 59.7458 29.1871 61.8791 29.1871C62.9191 29.1871 63.7324 28.9471 64.3191 28.4671C64.9191 27.9871 65.2191 27.3338 65.2191 26.5071C65.2191 25.7605 64.9658 25.1671 64.4591 24.7271C63.9658 24.2738 63.1791 24.0471 62.0991 24.0471H60.1591V22.5871H61.6191C63.7124 22.5871 64.7591 21.8671 64.7591 20.4271C64.7591 19.6538 64.4724 19.0405 63.8991 18.5871C63.3391 18.1338 62.5924 17.9071 61.6591 17.9071C60.7791 17.9071 60.0591 18.1005 59.4991 18.4871C58.9391 18.8605 58.5458 19.4871 58.3191 20.3671H56.6391C56.8924 18.9938 57.4658 17.9805 58.3591 17.3271C59.2658 16.6605 60.3791 16.3271 61.6991 16.3271C63.0591 16.3271 64.1858 16.6938 65.0791 17.4271C65.9858 18.1471 66.4391 19.0805 66.4391 20.2271C66.4391 20.9071 66.2658 21.5071 65.9191 22.0271C65.5724 22.5471 65.0724 22.9271 64.4191 23.1671Z" fill="#52AE32"/>
<path d="M68.4652 16.5471H78.0052V17.8071L71.7252 30.5471H69.8452L76.0452 18.1471H68.4652V16.5471Z" fill="#52AE32"/>
<path d="M84.7382 21.3071C86.0848 21.3071 87.2115 21.7271 88.1182 22.5671C89.0382 23.4071 89.4982 24.5205 89.4982 25.9071C89.4982 27.3205 89.0115 28.4871 88.0382 29.4071C87.0648 30.3138 85.8515 30.7671 84.3982 30.7671C82.9982 30.7671 81.7915 30.3871 80.7782 29.6271C79.7648 28.8671 79.1582 27.7938 78.9582 26.4071H80.6382C80.8382 27.3005 81.2782 27.9871 81.9582 28.4671C82.6382 28.9471 83.4515 29.1871 84.3982 29.1871C85.3848 29.1871 86.1982 28.8738 86.8382 28.2471C87.4915 27.6205 87.8182 26.8405 87.8182 25.9071C87.8182 24.9471 87.4982 24.1738 86.8582 23.5871C86.2182 23.0005 85.4048 22.7071 84.4182 22.7071C82.9115 22.7071 81.8048 23.3138 81.0982 24.5271H79.4982L81.1982 16.5471H88.8382V18.1271H82.4582L81.5382 22.4871C82.3915 21.7005 83.4582 21.3071 84.7382 21.3071Z" fill="#52AE32"/>
</svg>
