<svg width="129" height="69" viewBox="0 0 129 69" fill="none" xmlns="http://www.w3.org/2000/svg">
<path fill-rule="evenodd" clip-rule="evenodd" d="M93.8026 25.8516L64.8979 0.705566L32.5522 25.8516H0V68.6682H128.372V25.8516H93.8026ZM90.7554 25.8516L64.8265 3.29436L35.8108 25.8516H90.7554ZM126.372 66.6682H2V27.8516H126.372V66.6682Z" fill="#3DAB24"/>
<path d="M26.1239 41.6084C27.7105 41.6084 29.0505 42.1551 30.1439 43.2484C31.2505 44.3284 31.8039 45.6884 31.8039 47.3284C31.8039 48.9684 31.2572 50.3351 30.1639 51.4284C29.0705 52.5084 27.7239 53.0484 26.1239 53.0484C24.5372 53.0484 23.1972 52.5017 22.1039 51.4084C21.0105 50.3151 20.4639 48.9551 20.4639 47.3284C20.4639 45.7017 21.0105 44.3417 22.1039 43.2484C23.2105 42.1551 24.5505 41.6084 26.1239 41.6084ZM28.9639 44.3684C28.1905 43.5817 27.2439 43.1884 26.1239 43.1884C25.0039 43.1884 24.0572 43.5817 23.2839 44.3684C22.5239 45.1417 22.1439 46.1284 22.1439 47.3284C22.1439 48.5284 22.5239 49.5217 23.2839 50.3084C24.0572 51.0817 25.0039 51.4684 26.1239 51.4684C27.2572 51.4684 28.2039 51.0817 28.9639 50.3084C29.7372 49.5217 30.1239 48.5284 30.1239 47.3284C30.1239 46.1284 29.7372 45.1417 28.9639 44.3684Z" fill="#52AE32"/>
<path d="M42.2507 41.8284V43.3884H38.4507V52.8284H36.7907V43.3884H32.9907V41.8284H38.4507H42.2507Z" fill="#52AE32"/>
<path d="M53.9637 52.8284H51.7837L45.9037 47.5284V52.8284H44.2437V41.8284H45.9037V46.7284L51.2637 41.8284H53.4437L47.6637 47.0484L53.9637 52.8284Z" fill="#52AE32"/>
<path d="M61.9625 41.6084C63.4558 41.6084 64.6825 42.1484 65.6425 43.2284C66.6158 44.2951 67.1025 45.6617 67.1025 47.3284C67.1025 48.9951 66.6158 50.3684 65.6425 51.4484C64.6691 52.5151 63.4358 53.0484 61.9425 53.0484C61.0091 53.0484 60.1758 52.8351 59.4425 52.4084C58.7225 51.9684 58.1491 51.3684 57.7225 50.6084V57.8284H56.0625V41.8284H57.7225V44.0884C58.1491 43.3151 58.7291 42.7084 59.4625 42.2684C60.1958 41.8284 61.0291 41.6084 61.9625 41.6084ZM61.6425 51.4684C62.7491 51.4684 63.6558 51.0817 64.3625 50.3084C65.0691 49.5351 65.4225 48.5417 65.4225 47.3284C65.4225 46.1284 65.0691 45.1417 64.3625 44.3684C63.6558 43.5817 62.7491 43.1884 61.6425 43.1884C60.5091 43.1884 59.5691 43.5817 58.8225 44.3684C58.0758 45.1417 57.7025 46.1284 57.7025 47.3284C57.7025 48.5284 58.0758 49.5217 58.8225 50.3084C59.5691 51.0817 60.5091 51.4684 61.6425 51.4684Z" fill="#52AE32"/>
<path d="M74.8148 45.4684C76.0681 45.4684 77.0281 45.7751 77.6948 46.3884C78.3615 46.9884 78.6948 47.8884 78.6948 49.0884C78.6948 50.2751 78.3481 51.1951 77.6548 51.8484C76.9615 52.5017 75.9881 52.8284 74.7348 52.8284H69.6148V41.8284H71.2748V45.4684H74.8148ZM80.4348 41.8284H82.0948V52.8284H80.4348V41.8284ZM74.7148 51.2484C76.2481 51.2484 77.0148 50.5284 77.0148 49.0884C77.0148 48.4084 76.8415 47.8817 76.4948 47.5084C76.1615 47.1351 75.5748 46.9484 74.7348 46.9484H71.2748V51.2484H74.7148Z" fill="#52AE32"/>
<path d="M93.364 41.8284V43.3884H89.564V52.8284H87.904V43.3884H84.104V41.8284H89.564H93.364Z" fill="#52AE32"/>
<path d="M100.225 41.6084C101.812 41.6084 103.152 42.1551 104.245 43.2484C105.352 44.3284 105.905 45.6884 105.905 47.3284C105.905 48.9684 105.359 50.3351 104.265 51.4284C103.172 52.5084 101.825 53.0484 100.225 53.0484C98.6388 53.0484 97.2988 52.5017 96.2054 51.4084C95.1121 50.3151 94.5654 48.9551 94.5654 47.3284C94.5654 45.7017 95.1121 44.3417 96.2054 43.2484C97.3121 42.1551 98.6521 41.6084 100.225 41.6084ZM103.065 44.3684C102.292 43.5817 101.345 43.1884 100.225 43.1884C99.1054 43.1884 98.1588 43.5817 97.3854 44.3684C96.6254 45.1417 96.2454 46.1284 96.2454 47.3284C96.2454 48.5284 96.6254 49.5217 97.3854 50.3084C98.1588 51.0817 99.1054 51.4684 100.225 51.4684C101.359 51.4684 102.305 51.0817 103.065 50.3084C103.839 49.5217 104.225 48.5284 104.225 47.3284C104.225 46.1284 103.839 45.1417 103.065 44.3684Z" fill="#52AE32"/>
</svg>
