<svg width="63" height="58" viewBox="0 0 63 58" fill="none" xmlns="http://www.w3.org/2000/svg">
<path fill-rule="evenodd" clip-rule="evenodd" d="M26.0439 11.1977L37.7218 10.986L40.6884 2.02637H23.0142L26.0439 11.1977ZM26.4187 13.1912L6.3721 26.677L2.95258 55.8643H60.752L57.3325 26.6773L37.0434 13.0347L37.0554 12.9984L26.4187 13.1912ZM43.4574 0.0263672H20.2472L24.2761 12.2221L4.4927 25.5309L0.70459 57.8643H63L59.2119 25.5309L39.4193 12.2221L43.4574 0.0263672Z" fill="#52AE32"/>
<path fill-rule="evenodd" clip-rule="evenodd" d="M23.3785 24.4648H33.8944L33.9445 24.4699L33.8441 25.4648C33.9445 24.4699 33.9456 24.47 33.9456 24.47L33.9469 24.4701L33.9499 24.4705L33.9572 24.4712L33.9772 24.4735C33.9929 24.4754 34.0133 24.478 34.0382 24.4815C34.0879 24.4884 34.1554 24.4989 34.2382 24.5142C34.4035 24.5446 34.6315 24.5945 34.9015 24.6743C35.4386 24.833 36.1595 25.1152 36.8856 25.6125C38.3835 26.6386 39.7951 28.5122 39.7899 31.7483C39.7847 34.9584 38.3701 36.8145 36.875 37.829C36.1503 38.3208 35.4316 38.5996 34.8964 38.7562C34.6273 38.8349 34.4001 38.884 34.2354 38.914C34.153 38.9291 34.0857 38.9394 34.0362 38.9462C34.0115 38.9496 33.9911 38.9522 33.9755 38.954L33.9556 38.9563L33.9483 38.957L33.9454 38.9573L33.9441 38.9575C33.9441 38.9575 33.943 38.9576 33.8441 37.9625L33.943 38.9576L33.8902 38.9628L25.3785 38.9035V49.4698H23.3785V38.8965H21.6277V36.8965H23.3785V24.4648ZM25.3785 36.9034L33.7832 36.962C33.8062 36.9586 33.8378 36.9536 33.877 36.9464C33.9823 36.9272 34.1409 36.8933 34.3348 36.8366C34.7254 36.7223 35.2414 36.5206 35.752 36.1741C36.7276 35.5121 37.7858 34.2602 37.7899 31.7451C37.794 29.1992 36.7326 27.9319 35.7554 27.2626C35.2438 26.9122 34.7265 26.708 34.3348 26.5923C34.1404 26.5349 33.9814 26.5005 33.8758 26.4811C33.835 26.4736 33.8025 26.4683 33.7793 26.4648H25.3785V36.9034Z" fill="#52AE32"/>
<path fill-rule="evenodd" clip-rule="evenodd" d="M34.9446 42.8203H21.626V40.8203H34.9446V42.8203Z" fill="#52AE32"/>
</svg>
