<svg width="63" height="58" viewBox="0 0 63 58" fill="none" xmlns="http://www.w3.org/2000/svg">
<path fill-rule="evenodd" clip-rule="evenodd" d="M51.3566 3.86028L46.4243 2.53068L46.9449 0.599609L55.144 2.80987L52.7897 10.8839L50.8696 10.324L52.2268 5.66987L9.95356 30.8462L8.93018 29.1279L51.3566 3.86028ZM58.2673 21.9829H48.8326V55.0144H43.1415V29.4553H34.4936V55.0144H28.8025V36.6666H19.5446V55.0144H14.2867V44.5081H4.94043V55.0151H0V57.0151H62.9519V55.0151H58.2673V21.9829ZM56.2673 55.0151V23.9829H50.8326V55.0151H56.2673ZM41.1415 55.0151V31.4553H36.4936V55.0151H41.1415ZM26.8025 55.0151V38.6666H21.5446V55.0151H26.8025ZM12.2867 55.0151V46.5081H6.94043V55.0151H12.2867Z" fill="#52AE32"/>
</svg>
