<svg width="99" height="100" viewBox="0 0 99 100" fill="none" xmlns="http://www.w3.org/2000/svg">
<path d="M11.4948 29.2599C13.8961 28.9879 16.1975 28.6012 18.5148 28.4892C22.5641 28.2945 26.6334 28.0252 30.6708 28.2479C34.2068 28.4425 37.7601 29.0479 41.2121 29.8679C46.9401 31.2279 52.5801 31.1932 58.2468 29.7065C64.8321 27.9785 71.5281 27.8105 78.2668 28.3505C80.8868 28.5612 83.5001 28.8519 86.1148 29.1185C86.5161 29.1599 86.9108 29.2639 87.3801 29.3519C87.3801 30.9172 87.3881 32.4159 87.3694 33.9145C87.3668 34.1105 87.2854 34.4012 87.1454 34.4812C85.3601 35.4879 85.0041 37.2759 84.6401 39.0425C84.2108 41.1345 83.8748 43.2479 83.4334 45.3385C82.3494 50.4665 79.8895 52.7959 74.5468 53.6372C70.8081 54.2265 67.0734 54.2292 63.3668 53.2705C59.3814 52.2385 56.6015 49.7572 54.9001 46.1065C53.9068 43.9719 53.1855 41.7105 52.3615 39.4985C51.7135 37.7585 51.2548 37.4265 49.3641 37.4319C47.6041 37.4372 47.1335 37.8012 46.5028 39.5239C45.7561 41.5652 45.0615 43.6305 44.1921 45.6199C42.3081 49.9399 39.0841 52.6279 34.3801 53.5332C30.6281 54.2559 26.9001 54.1705 23.1908 53.4185C18.5868 52.4852 16.2241 49.8479 15.3615 44.9759C14.9508 42.6519 14.5281 40.3252 14.0028 38.0239C13.6855 36.6345 13.2001 35.2759 11.8028 34.5105C11.6335 34.4172 11.5121 34.0932 11.5081 33.8745C11.4828 32.4105 11.4948 30.9479 11.4948 29.2599Z" fill="#59AD3B"/>
<path d="M49.4374 11.0045C28.0854 11.0045 10.7148 28.3738 10.7148 49.7258C10.7148 71.0778 28.0854 88.4472 49.4374 88.4472C70.7894 88.4472 88.1588 71.0778 88.1588 49.7258C88.1588 28.3738 70.7894 11.0045 49.4374 11.0045ZM49.4374 99.1138C22.2041 99.1138 0.0480957 76.9592 0.0480957 49.7258C0.0480957 22.4925 22.2041 0.33783 49.4374 0.33783C76.6708 0.33783 98.8254 22.4925 98.8254 49.7258C98.8254 76.9592 76.6708 99.1138 49.4374 99.1138Z" fill="#59AD3B"/>
<path d="M49.4375 75.8118C41.2202 75.8118 33.0069 72.6852 26.7522 66.4305L30.5229 62.6598C40.9522 73.0878 57.9202 73.0892 68.3522 62.6598L72.1229 66.4305C65.8682 72.6838 57.6509 75.8118 49.4375 75.8118Z" fill="#59AD3B"/>
</svg>
