<svg width="100" height="100" viewBox="0 0 100 100" fill="none" xmlns="http://www.w3.org/2000/svg">
<path d="M49.7227 11.5931C28.3721 11.5931 11.0014 28.9625 11.0014 50.3145C11.0014 71.6665 28.3721 89.0371 49.7227 89.0371C71.0747 89.0371 88.4441 71.6665 88.4441 50.3145C88.4441 28.9625 71.0747 11.5931 49.7227 11.5931ZM49.7227 99.7038C22.4907 99.7038 0.334717 77.5478 0.334717 50.3145C0.334717 23.0811 22.4907 0.926468 49.7227 0.926468C76.9561 0.926468 99.1107 23.0811 99.1107 50.3145C99.1107 77.5478 76.9561 99.7038 49.7227 99.7038Z" fill="#59AD3B"/>
<path d="M78.2838 46.2572C78.2838 53.4025 72.4918 59.1945 65.3465 59.1945C58.2012 59.1945 52.4092 53.4025 52.4092 46.2572C52.4092 39.1132 58.2012 33.3199 65.3465 33.3199C72.4918 33.3199 78.2838 39.1132 78.2838 46.2572Z" fill="#59AD3B"/>
<path d="M47.0365 46.2572C47.0365 53.4025 41.2445 59.1945 34.0992 59.1945C26.9539 59.1945 21.1619 53.4025 21.1619 46.2572C21.1619 39.1132 26.9539 33.3199 34.0992 33.3199C41.2445 33.3199 47.0365 39.1132 47.0365 46.2572Z" fill="#59AD3B"/>
<path d="M49.9967 75.6544C44.9927 75.6544 39.99 74.4917 35.4287 72.1637L37.8527 67.413C45.458 71.293 54.5394 71.2917 62.146 67.4104L64.57 72.161C60.0074 74.4904 55.0007 75.6544 49.9967 75.6544Z" fill="#59AD3B"/>
</svg>
