<svg width="99" height="100" viewBox="0 0 99 100" fill="none" xmlns="http://www.w3.org/2000/svg">
<path d="M49.6043 76.2441C41.0389 76.2441 32.9829 72.9055 26.9189 66.8401L30.6896 63.0695C35.7469 68.1268 42.4643 70.9108 49.6043 70.9108C56.7443 70.9108 63.4616 68.1268 68.5189 63.0695L72.2896 66.8401C66.2256 72.9055 58.1696 76.2441 49.6043 76.2441Z" fill="#59AD3B"/>
<path d="M26.6029 34.2194C28.6882 33.5007 30.8682 33.7621 32.6602 34.7474C33.4629 32.8687 35.0189 31.3194 37.1042 30.6007C41.0189 29.2514 45.2855 31.3327 46.6322 35.2474C48.9575 41.9914 39.3135 54.0621 39.3135 54.0621C39.3135 54.0621 24.2829 50.4927 21.9589 43.7474C20.6095 39.8341 22.6895 35.5674 26.6029 34.2194Z" fill="#59AD3B"/>
<path d="M72.6055 34.2194C70.5202 33.5007 68.3402 33.7621 66.5495 34.7474C65.7455 32.8687 64.1895 31.3194 62.1042 30.6007C58.1895 29.2514 53.9228 31.3327 52.5762 35.2474C50.2508 41.9914 59.8948 54.0621 59.8948 54.0621C59.8948 54.0621 74.9268 50.4927 77.2508 43.7474C78.5988 39.8341 76.5202 35.5674 72.6055 34.2194Z" fill="#59AD3B"/>
<path d="M49.6041 11.4148C28.2521 11.4148 10.8827 28.7855 10.8827 50.1375C10.8827 71.4895 28.2521 88.8588 49.6041 88.8588C70.9561 88.8588 88.3254 71.4895 88.3254 50.1375C88.3254 28.7855 70.9561 11.4148 49.6041 11.4148ZM49.6041 99.5255C22.3707 99.5255 0.216064 77.3708 0.216064 50.1375C0.216064 22.9041 22.3707 0.748123 49.6041 0.748123C76.8374 0.748123 98.9921 22.9041 98.9921 50.1375C98.9921 77.3708 76.8374 99.5255 49.6041 99.5255Z" fill="#59AD3B"/>
</svg>
