<svg width="197" height="62" viewBox="0 0 197 62" fill="none" xmlns="http://www.w3.org/2000/svg">
<path fill-rule="evenodd" clip-rule="evenodd" d="M191.631 58.3129H189.777V51.3191H191.721V55.4361L194.891 51.3191H196.745V58.3129H194.801V54.1959L191.631 58.3129ZM193.229 50.5532H193.255C193.17 50.5596 193.087 50.5621 193.002 50.5609C191.704 50.534 190.671 49.46 190.698 48.1622H192.181C192.182 48.7312 192.644 49.1928 193.214 49.1941C193.787 49.1953 194.251 48.7338 194.252 48.1622H195.748C195.767 48.8233 195.503 49.4613 195.018 49.9139C194.527 50.3486 193.886 50.5762 193.229 50.5532ZM185.531 58.5047C184.517 58.5354 183.527 58.1736 182.77 57.4946C182.021 56.8119 181.609 55.8363 181.644 54.8237C181.632 53.8699 181.996 52.9518 182.654 52.2665C183.341 51.5505 184.3 51.1631 185.289 51.204C186.223 51.1656 187.12 51.5633 187.717 52.278C188.314 52.9966 188.637 53.9031 188.625 54.8352V55.3594H183.613C183.819 56.3183 184.676 56.817 185.954 56.817C186.742 56.8132 187.513 56.6022 188.192 56.2046V57.7887C187.407 58.3104 186.473 58.561 185.531 58.5047ZM183.613 54.1064H186.683C186.683 54.0936 186.683 54.0795 186.682 54.068C186.653 53.283 185.996 52.6718 185.211 52.6999C184.385 52.6565 183.676 53.2804 183.613 54.1064ZM178.577 52.9812L176.39 52.994V53.9785C176.389 54.8083 176.282 55.6317 176.071 56.4334C175.887 57.5867 174.884 58.4306 173.718 58.4152C173.464 58.4306 173.21 58.3871 172.976 58.2874V56.6776C173.112 56.6994 173.25 56.6994 173.384 56.6776C173.846 56.6776 174.14 56.4091 174.292 55.7826C174.471 54.9924 174.549 54.1857 174.524 53.3789V51.3191H180.558V58.3129H178.577V52.9812ZM169.395 58.5047C168.38 58.5354 167.392 58.1736 166.635 57.4946C165.885 56.8119 165.474 55.8363 165.509 54.8237C165.497 53.8699 165.86 52.9518 166.518 52.2665C167.205 51.5505 168.164 51.1631 169.153 51.204C170.086 51.1656 170.984 51.5633 171.583 52.278C172.18 52.9966 172.501 53.9031 172.491 54.8352V55.3594H167.477C167.683 56.3183 168.538 56.817 169.817 56.817C170.606 56.8132 171.377 56.6022 172.055 56.2046V57.7887C171.271 58.3104 170.337 58.561 169.395 58.5047ZM167.477 54.1064H170.547C170.547 54.0936 170.547 54.0795 170.546 54.068C170.518 53.283 169.861 52.6718 169.075 52.6999C168.249 52.6565 167.54 53.2804 167.477 54.1064ZM162.978 58.327H160.996V52.9812H158.822V51.3319H165.19V52.9812H162.978V58.327ZM158.17 56.7927C158.303 56.794 158.435 56.762 158.554 56.7019V58.1595C158.243 58.3743 157.87 58.4779 157.493 58.4536C156.825 58.5316 156.185 58.1697 155.907 57.5586C155.274 58.2004 154.404 58.5482 153.504 58.5175C153.428 58.5252 153.353 58.5277 153.276 58.5277C151.983 58.5226 150.941 57.4704 150.946 56.1777C150.907 55.5052 151.216 54.8582 151.765 54.4644C152.332 54.0655 153.014 53.8596 153.708 53.8762C154.415 53.8328 155.122 53.9645 155.767 54.2598V54.0552C155.767 53.2127 155.191 52.7767 153.913 52.7767C153.169 52.7779 152.44 52.9812 151.803 53.3648V51.6899C152.597 51.2973 153.474 51.1043 154.36 51.1273C155.221 51.0851 156.071 51.3421 156.763 51.8561C157.376 52.3432 157.719 53.095 157.685 53.8762V56.2557C157.685 56.6124 157.851 56.7927 158.17 56.7927ZM155.715 56.2557L155.677 55.5653C155.244 55.284 154.736 55.142 154.22 55.1548C153.388 55.1548 152.851 55.4502 152.851 56.0626C152.851 56.6776 153.401 56.9704 154.13 56.9704C154.743 57.0062 155.336 56.739 155.715 56.2557ZM143.863 58.327H141.996V51.3319H143.94L145.973 53.9402L148.018 51.3319H149.962V58.327H148.095V54.0041L146.369 56.1777H145.575L143.863 54.0041V58.327ZM135.322 58.327H133.481V51.3319H135.424V55.4502L138.595 51.3319H140.436V58.327H138.492V54.1959L135.322 58.327ZM127.075 58.327H125.106V51.3319H127.075V53.9159H129.952V51.3319H131.921V58.327H129.952V55.5768H127.075V58.327ZM118.432 58.327H116.578V51.3319H118.534V55.4502L121.692 51.3319H123.546V58.327H121.602V54.1959L118.432 58.327ZM112.218 51.1017V51.1413C113.146 51.1503 114.018 51.5952 114.569 52.3419C115.191 53.049 115.523 53.9606 115.504 54.8991C115.515 55.8363 115.184 56.7467 114.569 57.4563C113.984 58.1429 113.121 58.5277 112.218 58.5047C111.328 58.552 110.471 58.1659 109.916 57.4691V61.113H107.935V51.3191H109.916V52.1374C110.466 51.4341 111.327 51.0467 112.218 51.1017ZM111.655 52.8662V52.8278C110.927 52.8316 110.259 53.2331 109.916 53.8762V55.743C110.26 56.3823 110.929 56.7812 111.655 56.7786C112.167 56.7953 112.66 56.5894 113.011 56.2161C113.716 55.4208 113.716 54.224 113.011 53.43C112.66 53.0554 112.167 52.8508 111.655 52.8662ZM101.618 58.327H99.6494V51.3319H106.388V58.327H104.406V52.9812H101.618V58.327ZM91.7606 60.0915L89.9577 60.0774V56.6508H90.8528C91.4805 55.4233 91.7721 54.0514 91.6966 52.6744V51.3191H97.5781V56.6636H98.7289V60.0915H96.811V58.3129H91.7606V60.0915ZM92.7834 56.6636H95.5835V52.9812H93.3971C93.4304 54.2368 93.222 55.4873 92.7834 56.6636ZM86.3266 58.5047C85.3101 58.5354 84.3217 58.1736 83.5648 57.4946C82.8155 56.8119 82.4038 55.8363 82.4396 54.8237C82.4269 53.8699 82.79 52.9518 83.4497 52.2665C84.1351 51.5505 85.094 51.1631 86.0836 51.204C87.0157 51.1656 87.9133 51.5633 88.5129 52.278C89.11 52.9966 89.431 53.9031 89.4207 54.8352V55.3594H84.4087C84.6132 56.3183 85.4699 56.817 86.7485 56.817C87.5348 56.8132 88.3071 56.6022 88.986 56.2046V57.7887C88.201 58.3104 87.2663 58.561 86.3266 58.5047ZM84.4087 54.1064H87.4134C87.4134 54.0936 87.4134 54.0795 87.4121 54.068C87.3839 53.283 86.7267 52.6718 85.943 52.6999C85.14 52.6923 84.4688 53.3073 84.4087 54.1064ZM78.54 51.1017V51.1413C79.4733 51.1465 80.3492 51.5914 80.9053 52.3419C81.5242 53.049 81.8579 53.9606 81.8387 54.8991C81.8502 55.8363 81.5178 56.7467 80.9053 57.4563C80.3185 58.1429 79.4554 58.5277 78.5527 58.5047C77.6628 58.552 76.8062 58.1659 76.2513 57.4691V61.113H74.2695V51.3191H76.2385V52.1374C76.7883 51.4341 77.6488 51.0467 78.54 51.1017ZM77.9774 52.8662V52.8278C77.2486 52.8316 76.5812 53.2331 76.2385 53.8762V55.743C76.5824 56.3823 77.2511 56.7812 77.9774 56.7786C78.4888 56.7953 78.9823 56.5894 79.3327 56.2161C80.0397 55.4208 80.0397 54.224 79.3327 53.43C78.9823 53.0554 78.4888 52.8508 77.9774 52.8662ZM67.9532 58.327H65.9714V51.3319H72.7096V58.327H70.7406V52.9812H67.9532V58.327ZM56.0624 58.327L53.8376 58.3129L55.7172 55.6535C54.8349 55.3709 54.2621 54.5181 54.3363 53.5962C54.3363 52.2908 55.2441 51.3191 57.0853 51.3191H60.8315V58.327H58.8625V56.0115H57.6734L56.0624 58.327ZM57.4049 54.5795H58.8625V52.8662H57.4049C56.7528 52.8662 56.3565 53.173 56.3565 53.7228C56.3565 54.2726 56.74 54.5795 57.4049 54.5795ZM50.9352 52.9812L48.7361 52.994V53.9785C48.7348 54.8083 48.6274 55.6317 48.4164 56.4334C48.2323 57.5867 47.2312 58.4306 46.0638 58.4152C45.8094 58.4306 45.5562 58.3871 45.3222 58.2874V56.6776C45.4578 56.6994 45.5959 56.6994 45.7314 56.6776C46.1917 56.6776 46.4858 56.4091 46.6392 55.7826C46.8169 54.9924 46.8936 54.1857 46.8693 53.3789V51.3191H52.9171V58.3129H50.9352V52.9812ZM38.0854 60.0915L36.2571 60.0774V56.6508H37.1521C37.7799 55.4233 38.0714 54.0514 37.9959 52.6744V51.3191H43.8774V56.6636H45.0282V60.0915H43.1231V58.3129H38.0854V60.0915ZM39.1083 56.6636H41.9084V52.9812H39.722C39.7553 54.2368 39.5469 55.4873 39.1083 56.6636ZM27.2558 58.327H25.274V51.3319H27.2558V53.8762L29.6595 51.3319H32.0889L29.0458 54.4772L32.5619 58.327H30.0175L27.2558 55.3083V58.327ZM18.8811 58.327H16.8992V51.3319H18.8811V53.9159H21.7579V51.3319H23.7269V58.327H21.7579V55.5768H18.8811V58.327ZM15.5184 56.7927H15.5056C15.6347 56.7914 15.7613 56.7607 15.8764 56.7019V58.1595C15.5657 58.3743 15.191 58.4779 14.8151 58.4536C14.1477 58.5316 13.5084 58.1697 13.2297 57.5586C12.5981 58.2004 11.7261 58.5482 10.8259 58.5175C10.7505 58.5252 10.6738 58.5277 10.5984 58.5277C9.30571 58.5226 8.26238 57.4704 8.26877 56.1777C8.23041 55.5052 8.53856 54.8582 9.08707 54.4644C9.65476 54.0655 10.3362 53.8596 11.0305 53.8762C11.7465 53.8277 12.4625 53.9606 13.1146 54.2598V54.0552C13.1146 53.2127 12.5393 52.7767 11.2607 52.7767C10.5165 52.7779 9.78773 52.9812 9.151 53.3648V51.6899C9.945 51.2973 10.8221 51.1043 11.7082 51.1273C12.5699 51.0851 13.4189 51.3421 14.1119 51.8561C14.7244 52.3432 15.067 53.095 15.0325 53.8762V56.2557C15.0325 56.6124 15.1987 56.7927 15.5184 56.7927ZM13.0635 56.2557L13.0507 55.5653C12.6172 55.284 12.1084 55.142 11.5931 55.1548C10.762 55.1548 10.1994 55.4502 10.1994 56.0626C10.1994 56.6776 10.7492 56.9704 11.478 56.9704C12.0917 57.0062 12.6837 56.739 13.0635 56.2557ZM4.68873 51.7154L4.67594 51.7806C5.49807 51.7359 6.3023 52.0325 6.90068 52.5977C7.50418 53.2408 7.80209 54.1115 7.71898 54.9886C7.74199 55.9501 7.36225 56.8784 6.67054 57.5458C5.98777 58.2107 5.06591 58.5751 4.11336 58.5559C3.01633 58.6083 1.9615 58.1339 1.2749 57.2773C0.569117 56.3171 0.277599 55.1548 0.277599 53.953C0.277599 52.5977 0.78392 50.9253 2.00369 49.9893C2.62637 49.538 3.3168 49.1877 4.04943 48.955C5.02244 48.6443 6.01846 48.4141 7.02854 48.2645V50.029L6.28696 50.1556L5.55817 50.2847L4.8933 50.4241C4.48543 50.4982 4.08779 50.6146 3.70421 50.7706C3.36027 50.8933 3.04958 51.094 2.79642 51.3587C2.3796 51.7653 2.1405 52.3215 2.13155 52.9058C2.74655 52.1259 3.69654 51.6835 4.68873 51.7154ZM4.11336 56.8298C4.1351 56.8298 4.15811 56.8285 4.18113 56.8272C5.11066 56.771 5.819 55.9706 5.76274 55.0398C5.7653 54.9797 5.7653 54.917 5.76146 54.8556C5.70265 54.0028 4.9649 53.3584 4.11336 53.416C3.35005 53.4505 2.6481 53.8443 2.22105 54.4772C2.23384 55.9872 2.93706 56.8298 4.11336 56.8298ZM43.2393 28.3042C39.3268 28.3272 35.8094 27.2136 32.8904 24.6909C29.653 21.8934 28.3744 18.252 28.4064 14.1247C28.4345 10.7006 29.3756 7.586 31.7346 4.95466C33.8506 2.59567 36.5433 1.19178 39.6861 0.553763C43.6331 -0.247911 47.4318 0.202151 50.9274 2.13026C55.336 4.56341 57.5135 8.37488 57.782 13.2271C58.0185 17.4951 56.9624 21.3398 53.6905 24.4071C50.7868 27.1292 47.2259 28.2633 43.2393 28.3042ZM43.3339 7.07584C40.0198 7.15511 37.6941 8.87737 36.8054 11.7133C36.2595 13.4611 36.294 15.1949 36.8387 16.9427C37.6301 19.4807 39.3831 21.0393 42.0528 21.4459C44.757 21.8563 47.0802 20.9881 48.5582 18.6944C50.2396 16.0822 50.2715 13.2923 48.9303 10.5293C47.7821 8.16264 45.7364 7.10397 43.3339 7.07584ZM138.334 9.36707C138.127 8.04629 137.173 7.30471 135.955 6.86743C133.863 6.11562 131.699 6.0747 129.511 6.25243C127.489 6.41609 125.534 6.81756 123.65 7.78929C123.301 5.89442 122.964 4.07755 122.624 2.24022C124.283 1.43215 125.947 0.98209 127.658 0.679065C131.317 0.0333778 134.984 -0.0676307 138.611 0.831216C142.435 1.77993 145.12 3.94586 145.861 7.92994C146.044 8.91445 146.037 10.404 146.037 10.404V19.3541C146.037 19.7428 146.085 20.5739 146.109 20.9613C146.245 23.0301 146.434 23.2321 148.594 23.5453V27.8043C146.462 28.3311 144.273 28.6085 142.106 27.6087C140.888 27.0474 140.326 26.0079 140.059 24.7804C140.006 24.535 139.995 24.2805 139.951 23.9136C137.335 27.5946 133.591 28.4986 129.476 28.2723C124.866 28.0191 121.327 24.9889 120.675 21.4139C119.615 15.5963 122.613 11.2504 128.597 10.3733C132.38 9.81841 133.464 10.0537 138.355 11.6826C138.355 10.8963 138.452 10.1163 138.334 9.36707ZM138.205 16.765C136.95 15.9198 135.523 15.4762 134.031 15.2908C132.48 15.0977 130.949 15.1987 129.634 16.1934C128.427 17.1064 127.97 18.5563 128.413 20.0509C128.751 21.2004 129.948 22.1005 131.358 22.2309C132.718 22.3588 134.036 22.1568 135.291 21.6338C137.544 20.6941 138.426 19.2109 138.205 16.765ZM102.564 16.7976H98.7286V28.3049L91.0571 28.2806V0.17594H98.7286V10.4046C100.517 10.397 102.286 10.7716 103.897 10.2103C105.954 9.49301 107.394 8.07761 107.973 5.95899C108.482 4.10248 108.957 2.73312 108.957 0.17594H116.368C116.524 5.95516 115.401 11.0452 109.999 14.2174C110.212 14.6214 110.38 14.9756 110.579 15.3106C112.796 19.1003 115.025 22.8811 117.232 26.6785C117.498 27.1362 117.647 27.6669 117.907 28.3049H109.588C107.482 24.5624 105.334 20.7459 103.191 16.9382L102.564 16.7976ZM78.3537 0.17594H85.9434V28.3049H78.2795V19.2844C76.8692 19.6105 75.5779 20.0171 74.2571 20.1961C70.778 20.6666 67.4652 20.2383 64.628 17.8384C62.434 15.9818 61.149 13.4924 60.7603 10.668C60.3716 7.84747 60.5071 3.72658 60.3946 0.183612L68.0431 0.17594V1.45453V7.84747C68.0431 10.8585 70.6962 13.2342 73.5845 13.2764C75.3682 13.3019 76.4089 12.8672 78.2629 11.6909L78.3537 0.17594ZM16.899 28.3049H9.22746V7.84747H0.277344V0.17594H25.8491V7.84747H16.899V28.3049Z" fill="#ABABAB"/>
</svg>
